<mxfile host="app.diagrams.net" modified="2021-05-19T08:01:57.954Z" agent="5.0 (Macintosh; Intel Mac OS X 10_15_7) AppleWebKit/537.36 (KHTML, like Gecko) Chrome/90.0.4430.212 Safari/537.36" etag="FWYIQKtwekQzU4yZCste" version="14.6.12" type="github">
  <diagram id="tVQ_O44WDX8d9OzGseOw" name="Page-1">
    <mxGraphModel dx="1141" dy="619" grid="1" gridSize="10" guides="1" tooltips="1" connect="1" arrows="1" fold="1" page="1" pageScale="1" pageWidth="827" pageHeight="1169" math="0" shadow="0">
      <root>
        <mxCell id="0" />
        <mxCell id="1" parent="0" />
        <mxCell id="iz-zptIE7JW82janeDcS-3" value="" style="edgeStyle=orthogonalEdgeStyle;rounded=0;orthogonalLoop=1;jettySize=auto;html=1;" edge="1" parent="1" source="iz-zptIE7JW82janeDcS-1" target="iz-zptIE7JW82janeDcS-2">
          <mxGeometry relative="1" as="geometry" />
        </mxCell>
        <mxCell id="iz-zptIE7JW82janeDcS-1" value="火车运单" style="rounded=0;whiteSpace=wrap;html=1;" vertex="1" parent="1">
          <mxGeometry x="94" y="160" width="120" height="60" as="geometry" />
        </mxCell>
        <mxCell id="iz-zptIE7JW82janeDcS-5" value="" style="edgeStyle=orthogonalEdgeStyle;rounded=0;orthogonalLoop=1;jettySize=auto;html=1;" edge="1" parent="1" source="iz-zptIE7JW82janeDcS-2" target="iz-zptIE7JW82janeDcS-4">
          <mxGeometry relative="1" as="geometry" />
        </mxCell>
        <mxCell id="iz-zptIE7JW82janeDcS-2" value="提煤计划" style="rounded=0;whiteSpace=wrap;html=1;" vertex="1" parent="1">
          <mxGeometry x="294" y="160" width="120" height="60" as="geometry" />
        </mxCell>
        <mxCell id="iz-zptIE7JW82janeDcS-4" value="过磅单" style="whiteSpace=wrap;html=1;rounded=0;" vertex="1" parent="1">
          <mxGeometry x="494" y="160" width="120" height="60" as="geometry" />
        </mxCell>
      </root>
    </mxGraphModel>
  </diagram>
</mxfile>
